<svg xmlns="http://www.w3.org/2000/svg" width="1440" height="900" viewBox="0 0 1440 900">
<rect width="100%" height="100%" fill="#ffffff"/>
<rect x="0" y="0" width="240" height="900" fill="#f2f2f2"/>
<text x="32" y="48" font-family="Arial" font-size="28" font-weight="700" fill="#111">SIGPRA</text>
<text x="280" y="54" font-family="Arial" font-size="28" font-weight="700" fill="#111">Revisar institución</text>
<text x="32" y="86" font-family="Arial" font-size="14" fill="#666">Gestor de Prácticas</text><rect x="20" y="88" width="200" height="38" rx="6" fill="#e6e6e6"/><text x="34" y="113" font-family="Arial" font-size="15" fill="#222">Inicio</text><rect x="20" y="142" width="200" height="38" rx="6" fill="#e6e6e6"/><text x="34" y="167" font-family="Arial" font-size="15" fill="#222">Planificación</text><rect x="20" y="196" width="200" height="38" rx="6" fill="#e6e6e6"/><text x="34" y="221" font-family="Arial" font-size="15" fill="#222">Asignaciones</text><rect x="20" y="250" width="200" height="38" rx="6" fill="#e6e6e6"/><text x="34" y="275" font-family="Arial" font-size="15" fill="#222">Instituciones y convenios</text><rect x="20" y="304" width="200" height="38" rx="6" fill="#e6e6e6"/><text x="34" y="329" font-family="Arial" font-size="15" fill="#222">Informes e indicadores</text><rect x="320" y="130" width="850" height="500" rx="8" fill="#fafafa" stroke="#bdbdbd" stroke-width="1.5"/><text x="336" y="158" font-family="Arial" font-size="18" font-weight="400" fill="#222">INSTITUCIÓN Colegio ABC · Bucaramanga RUC: 900123456 Representante: María Pérez  CONVENIO</text><text x="336" y="183" font-family="Arial" font-size="18" font-weight="400" fill="#222">Inicio: 01/08/2026 Fin: 30/11/2027 Cupos: 20 Documento: convenio_2026.pdf</text><rect x="320" y="760" width="210" height="42" rx="7" fill="#ffffff" stroke="#999"/><text x="425.0" y="787" text-anchor="middle" font-family="Arial" font-size="15" font-weight="700" fill="#222">Guardar como borrador</text><rect x="560" y="760" width="170" height="42" rx="7" fill="#ffffff" stroke="#999"/><text x="645.0" y="787" text-anchor="middle" font-family="Arial" font-size="15" font-weight="700" fill="#222">← Modificar</text><rect x="930" y="760" width="260" height="42" rx="7" fill="#d9d9d9" stroke="#999"/><text x="1060.0" y="787" text-anchor="middle" font-family="Arial" font-size="15" font-weight="700" fill="#222">Registrar institución</text></svg>