<svg xmlns="http://www.w3.org/2000/svg" width="1440" height="900" viewBox="0 0 1440 900">
<rect width="100%" height="100%" fill="#ffffff"/>
<rect x="0" y="0" width="240" height="900" fill="#f2f2f2"/>
<text x="32" y="48" font-family="Arial" font-size="28" font-weight="700" fill="#111">SIGPRA</text>
<text x="280" y="54" font-family="Arial" font-size="28" font-weight="700" fill="#111">Seleccionar institución</text>
<text x="32" y="86" font-family="Arial" font-size="14" fill="#666">Gestor de Prácticas</text><rect x="20" y="88" width="200" height="38" rx="6" fill="#e6e6e6"/><text x="34" y="113" font-family="Arial" font-size="15" fill="#222">Inicio</text><rect x="20" y="142" width="200" height="38" rx="6" fill="#e6e6e6"/><text x="34" y="167" font-family="Arial" font-size="15" fill="#222">Planificación</text><rect x="20" y="196" width="200" height="38" rx="6" fill="#e6e6e6"/><text x="34" y="221" font-family="Arial" font-size="15" fill="#222">Asignaciones</text><rect x="20" y="250" width="200" height="38" rx="6" fill="#e6e6e6"/><text x="34" y="275" font-family="Arial" font-size="15" fill="#222">Instituciones y convenios</text><rect x="20" y="304" width="200" height="38" rx="6" fill="#e6e6e6"/><text x="34" y="329" font-family="Arial" font-size="15" fill="#222">Informes e indicadores</text><circle cx="330" cy="110" r="11" fill="#777" stroke="#777"/><line x1="342" y1="110" x2="480" y2="110" stroke="#aaa" stroke-width="2"/><text x="330" y="140" text-anchor="middle" font-family="Arial" font-size="12" fill="#333">Estudiante</text><circle cx="500" cy="110" r="11" fill="#777" stroke="#777"/><line x1="512" y1="110" x2="650" y2="110" stroke="#aaa" stroke-width="2"/><text x="500" y="140" text-anchor="middle" font-family="Arial" font-size="12" fill="#333">Institución</text><circle cx="670" cy="110" r="11" fill="#fff" stroke="#777"/><line x1="682" y1="110" x2="820" y2="110" stroke="#aaa" stroke-width="2"/><text x="670" y="140" text-anchor="middle" font-family="Arial" font-size="12" fill="#333">Docente</text><circle cx="840" cy="110" r="11" fill="#fff" stroke="#777"/><text x="840" y="140" text-anchor="middle" font-family="Arial" font-size="12" fill="#333">Confirmación</text><rect x="320" y="190" width="900" height="330" rx="8" fill="#fafafa" stroke="#bdbdbd" stroke-width="1.5"/><text x="336" y="218" font-family="Arial" font-size="17" font-weight="400" fill="#222">Institución         Convenio       Cupos     Disponibles  Colegio ABC         Activo         20</text><text x="336" y="242" font-family="Arial" font-size="17" font-weight="400" fill="#222">6  Colegio XYZ         Activo         10        2  Institución DEF     Vence pronto    8        1</text><rect x="1000" y="570" width="170" height="42" rx="7" fill="#d9d9d9" stroke="#999"/><text x="1085.0" y="597" text-anchor="middle" font-family="Arial" font-size="15" font-weight="700" fill="#222">Seleccionar</text></svg>