<svg xmlns="http://www.w3.org/2000/svg" width="1440" height="900" viewBox="0 0 1440 900">
<rect width="100%" height="100%" fill="#ffffff"/>
<rect x="0" y="0" width="240" height="900" fill="#f2f2f2"/>
<text x="32" y="48" font-family="Arial" font-size="28" font-weight="700" fill="#111">SIGPRA</text>
<text x="280" y="54" font-family="Arial" font-size="28" font-weight="700" fill="#111">Overlay - Institución sin cupos</text>
<text x="32" y="86" font-family="Arial" font-size="14" fill="#666">Gestor de Prácticas</text><rect x="20" y="88" width="200" height="38" rx="6" fill="#e6e6e6"/><text x="34" y="113" font-family="Arial" font-size="15" fill="#222">Inicio</text><rect x="20" y="142" width="200" height="38" rx="6" fill="#e6e6e6"/><text x="34" y="167" font-family="Arial" font-size="15" fill="#222">Planificación</text><rect x="20" y="196" width="200" height="38" rx="6" fill="#e6e6e6"/><text x="34" y="221" font-family="Arial" font-size="15" fill="#222">Asignaciones</text><rect x="20" y="250" width="200" height="38" rx="6" fill="#e6e6e6"/><text x="34" y="275" font-family="Arial" font-size="15" fill="#222">Instituciones y convenios</text><rect x="20" y="304" width="200" height="38" rx="6" fill="#e6e6e6"/><text x="34" y="329" font-family="Arial" font-size="15" fill="#222">Informes e indicadores</text><rect x="430" y="250" width="620" height="300" rx="8" fill="#fafafa" stroke="#bdbdbd" stroke-width="1.5"/><text x="446" y="278" font-family="Arial" font-size="19" font-weight="700" fill="#222">⚠ Sin disponibilidad  Colegio ABC no tiene cupos disponibles.</text><text x="446" y="304" font-family="Arial" font-size="19" font-weight="700" fill="#222">Capacidad: 20 Ocupados: 20 Disponibles: 0</text><rect x="650" y="500" width="180" height="42" rx="7" fill="#d9d9d9" stroke="#999"/><text x="740.0" y="527" text-anchor="middle" font-family="Arial" font-size="15" font-weight="700" fill="#222">Cerrar</text></svg>