<svg xmlns="http://www.w3.org/2000/svg" width="1440" height="900" viewBox="0 0 1440 900">
<rect width="100%" height="100%" fill="#ffffff"/>
<rect x="0" y="0" width="240" height="900" fill="#f2f2f2"/>
<text x="32" y="48" font-family="Arial" font-size="28" font-weight="700" fill="#111">SIGPRA</text>
<text x="280" y="54" font-family="Arial" font-size="28" font-weight="700" fill="#111">Seleccionar rúbrica</text>
<text x="32" y="86" font-family="Arial" font-size="14" fill="#666">Gestor de Prácticas</text><rect x="20" y="88" width="200" height="38" rx="6" fill="#e6e6e6"/><text x="34" y="113" font-family="Arial" font-size="15" fill="#222">Inicio</text><rect x="20" y="142" width="200" height="38" rx="6" fill="#e6e6e6"/><text x="34" y="167" font-family="Arial" font-size="15" fill="#222">Planificación</text><rect x="20" y="196" width="200" height="38" rx="6" fill="#e6e6e6"/><text x="34" y="221" font-family="Arial" font-size="15" fill="#222">Asignaciones</text><rect x="20" y="250" width="200" height="38" rx="6" fill="#e6e6e6"/><text x="34" y="275" font-family="Arial" font-size="15" fill="#222">Instituciones y convenios</text><rect x="20" y="304" width="200" height="38" rx="6" fill="#e6e6e6"/><text x="34" y="329" font-family="Arial" font-size="15" fill="#222">Informes e indicadores</text><circle cx="320" cy="110" r="11" fill="#777" stroke="#777"/><line x1="332" y1="110" x2="470" y2="110" stroke="#aaa" stroke-width="2"/><text x="320" y="140" text-anchor="middle" font-family="Arial" font-size="12" fill="#333">Información</text><circle cx="490" cy="110" r="11" fill="#777" stroke="#777"/><line x1="502" y1="110" x2="640" y2="110" stroke="#aaa" stroke-width="2"/><text x="490" y="140" text-anchor="middle" font-family="Arial" font-size="12" fill="#333">Parámetros</text><circle cx="660" cy="110" r="11" fill="#777" stroke="#777"/><line x1="672" y1="110" x2="810" y2="110" stroke="#aaa" stroke-width="2"/><text x="660" y="140" text-anchor="middle" font-family="Arial" font-size="12" fill="#333">Reglas</text><circle cx="830" cy="110" r="11" fill="#777" stroke="#777"/><line x1="842" y1="110" x2="980" y2="110" stroke="#aaa" stroke-width="2"/><text x="830" y="140" text-anchor="middle" font-family="Arial" font-size="12" fill="#333">Rúbrica</text><circle cx="1000" cy="110" r="11" fill="#fff" stroke="#777"/><text x="1000" y="140" text-anchor="middle" font-family="Arial" font-size="12" fill="#333">Revisión</text><rect x="320" y="190" width="430" height="360" rx="8" fill="#fafafa" stroke="#bdbdbd" stroke-width="1.5"/><text x="336" y="218" font-family="Arial" font-size="17" font-weight="400" fill="#222">○ Rúbrica Práctica Nivel I    8 criterios ·</text><text x="336" y="242" font-family="Arial" font-size="17" font-weight="400" fill="#222">2026  ○ Rúbrica Práctica Nivel II    10</text><text x="336" y="266" font-family="Arial" font-size="17" font-weight="400" fill="#222">criterios · 2026  ○ Crear nueva rúbrica</text><rect x="790" y="190" width="390" height="360" rx="8" fill="#fafafa" stroke="#bdbdbd" stroke-width="1.5"/><text x="806" y="218" font-family="Arial" font-size="16" font-weight="400" fill="#222">Vista previa  Planeación           20 %</text><text x="806" y="241" font-family="Arial" font-size="16" font-weight="400" fill="#222">Desempeño            30 % Responsabilidad</text><text x="806" y="264" font-family="Arial" font-size="16" font-weight="400" fill="#222">20 % Comunicación         15 % Otros</text><text x="806" y="287" font-family="Arial" font-size="16" font-weight="400" fill="#222">15 %</text><rect x="320" y="760" width="140" height="42" rx="7" fill="#ffffff" stroke="#999"/><text x="390.0" y="787" text-anchor="middle" font-family="Arial" font-size="15" font-weight="700" fill="#222">← Atrás</text><rect x="1040" y="760" width="180" height="42" rx="7" fill="#d9d9d9" stroke="#999"/><text x="1130.0" y="787" text-anchor="middle" font-family="Arial" font-size="15" font-weight="700" fill="#222">Continuar →</text></svg>