<svg xmlns="http://www.w3.org/2000/svg" width="1440" height="900" viewBox="0 0 1440 900">
<rect width="100%" height="100%" fill="#ffffff"/>
<rect x="0" y="0" width="240" height="900" fill="#f2f2f2"/>
<text x="32" y="48" font-family="Arial" font-size="28" font-weight="700" fill="#111">SIGPRA</text>
<text x="280" y="54" font-family="Arial" font-size="28" font-weight="700" fill="#111">Práctica publicada</text>
<text x="32" y="86" font-family="Arial" font-size="14" fill="#666">Gestor de Prácticas</text><rect x="20" y="88" width="200" height="38" rx="6" fill="#e6e6e6"/><text x="34" y="113" font-family="Arial" font-size="15" fill="#222">Inicio</text><rect x="20" y="142" width="200" height="38" rx="6" fill="#e6e6e6"/><text x="34" y="167" font-family="Arial" font-size="15" fill="#222">Planificación</text><rect x="20" y="196" width="200" height="38" rx="6" fill="#e6e6e6"/><text x="34" y="221" font-family="Arial" font-size="15" fill="#222">Asignaciones</text><rect x="20" y="250" width="200" height="38" rx="6" fill="#e6e6e6"/><text x="34" y="275" font-family="Arial" font-size="15" fill="#222">Instituciones y convenios</text><rect x="20" y="304" width="200" height="38" rx="6" fill="#e6e6e6"/><text x="34" y="329" font-family="Arial" font-size="15" fill="#222">Informes e indicadores</text><circle cx="320" cy="110" r="11" fill="#777" stroke="#777"/><line x1="332" y1="110" x2="470" y2="110" stroke="#aaa" stroke-width="2"/><text x="320" y="140" text-anchor="middle" font-family="Arial" font-size="12" fill="#333">Información</text><circle cx="490" cy="110" r="11" fill="#777" stroke="#777"/><line x1="502" y1="110" x2="640" y2="110" stroke="#aaa" stroke-width="2"/><text x="490" y="140" text-anchor="middle" font-family="Arial" font-size="12" fill="#333">Parámetros</text><circle cx="660" cy="110" r="11" fill="#777" stroke="#777"/><line x1="672" y1="110" x2="810" y2="110" stroke="#aaa" stroke-width="2"/><text x="660" y="140" text-anchor="middle" font-family="Arial" font-size="12" fill="#333">Reglas</text><circle cx="830" cy="110" r="11" fill="#777" stroke="#777"/><line x1="842" y1="110" x2="980" y2="110" stroke="#aaa" stroke-width="2"/><text x="830" y="140" text-anchor="middle" font-family="Arial" font-size="12" fill="#333">Rúbrica</text><circle cx="1000" cy="110" r="11" fill="#777" stroke="#777"/><text x="1000" y="140" text-anchor="middle" font-family="Arial" font-size="12" fill="#333">Revisión</text><rect x="390" y="240" width="650" height="300" rx="8" fill="#fbfbfb" stroke="#bdbdbd" stroke-width="1.5"/><text x="406" y="268" font-family="Arial" font-size="23" font-weight="700" fill="#222">✓ Práctica configurada correctamente  La configuración para el período</text><text x="406" y="298" font-family="Arial" font-size="23" font-weight="700" fill="#222">2026-2 ha sido publicada.</text><rect x="590" y="590" width="250" height="42" rx="7" fill="#d9d9d9" stroke="#999"/><text x="715.0" y="617" text-anchor="middle" font-family="Arial" font-size="15" font-weight="700" fill="#222">Volver a planificación</text></svg>