<svg xmlns="http://www.w3.org/2000/svg" width="1440" height="900" viewBox="0 0 1440 900"><rect width="100%" height="100%" fill="#fff"/><text x="70" y="70" font-family="Arial" font-size="28" font-weight="700" fill="#222">05-01 Flujo Gestor Planificacion</text><line x1="290" y1="185" x2="380" y2="185" stroke="#888" stroke-width="2" marker-end="url(#arrow)"/><line x1="570" y1="185" x2="660" y2="185" stroke="#888" stroke-width="2" marker-end="url(#arrow)"/><line x1="850" y1="185" x2="940" y2="185" stroke="#888" stroke-width="2" marker-end="url(#arrow)"/><line x1="1130" y1="185" x2="100" y2="445" stroke="#888" stroke-width="2" marker-end="url(#arrow)"/><line x1="290" y1="445" x2="380" y2="445" stroke="#888" stroke-width="2" marker-end="url(#arrow)"/><line x1="570" y1="445" x2="660" y2="445" stroke="#888" stroke-width="2" marker-end="url(#arrow)"/><defs><marker id="arrow" markerWidth="10" markerHeight="10" refX="6" refY="3" orient="auto"><path d="M0,0 L0,6 L7,3 z" fill="#888"/></marker></defs><rect x="100" y="140" width="190" height="90" rx="8" fill="#fafafa" stroke="#bdbdbd" stroke-width="1.5"/><text x="116" y="168" font-family="Arial" font-size="16" font-weight="700" fill="#222">G1-01 Inicio</text><rect x="380" y="140" width="190" height="90" rx="8" fill="#fafafa" stroke="#bdbdbd" stroke-width="1.5"/><text x="396" y="168" font-family="Arial" font-size="16" font-weight="700" fill="#222">G1-02 Seleccionar</text><rect x="660" y="140" width="190" height="90" rx="8" fill="#fafafa" stroke="#bdbdbd" stroke-width="1.5"/><text x="676" y="168" font-family="Arial" font-size="16" font-weight="700" fill="#222">G1-03 Parámetros</text><rect x="940" y="140" width="190" height="90" rx="8" fill="#fafafa" stroke="#bdbdbd" stroke-width="1.5"/><text x="956" y="168" font-family="Arial" font-size="16" font-weight="700" fill="#222">G1-04 Reglas</text><rect x="100" y="400" width="190" height="90" rx="8" fill="#fafafa" stroke="#bdbdbd" stroke-width="1.5"/><text x="116" y="428" font-family="Arial" font-size="16" font-weight="700" fill="#222">G1-05 Rúbrica</text><rect x="380" y="400" width="190" height="90" rx="8" fill="#fafafa" stroke="#bdbdbd" stroke-width="1.5"/><text x="396" y="428" font-family="Arial" font-size="16" font-weight="700" fill="#222">G1-06 Revisión</text><rect x="660" y="400" width="190" height="90" rx="8" fill="#fafafa" stroke="#bdbdbd" stroke-width="1.5"/><text x="676" y="428" font-family="Arial" font-size="16" font-weight="700" fill="#222">G1-07 Publicada</text></svg>