<svg xmlns="http://www.w3.org/2000/svg" width="1440" height="900" viewBox="0 0 1440 900"><rect width="100%" height="100%" fill="#fff"/><text x="70" y="70" font-family="Arial" font-size="28" font-weight="700" fill="#222">05-02 Flujo Gestor Asignacion</text><line x1="290" y1="225" x2="360" y2="225" stroke="#888" stroke-width="2" marker-end="url(#arrow)"/><line x1="550" y1="225" x2="620" y2="225" stroke="#888" stroke-width="2" marker-end="url(#arrow)"/><line x1="810" y1="225" x2="880" y2="225" stroke="#888" stroke-width="2" marker-end="url(#arrow)"/><line x1="1070" y1="225" x2="360" y2="505" stroke="#888" stroke-width="2" marker-end="url(#arrow)"/><line x1="550" y1="505" x2="620" y2="505" stroke="#888" stroke-width="2" marker-end="url(#arrow)"/><defs><marker id="arrow" markerWidth="10" markerHeight="10" refX="6" refY="3" orient="auto"><path d="M0,0 L0,6 L7,3 z" fill="#888"/></marker></defs><rect x="100" y="180" width="190" height="90" rx="8" fill="#fafafa" stroke="#bdbdbd" stroke-width="1.5"/><text x="116" y="208" font-family="Arial" font-size="16" font-weight="700" fill="#222">G2-01 Asignaciones</text><rect x="360" y="180" width="190" height="90" rx="8" fill="#fafafa" stroke="#bdbdbd" stroke-width="1.5"/><text x="376" y="208" font-family="Arial" font-size="16" font-weight="700" fill="#222">G2-02 Estudiante</text><rect x="620" y="180" width="190" height="90" rx="8" fill="#fafafa" stroke="#bdbdbd" stroke-width="1.5"/><text x="636" y="208" font-family="Arial" font-size="16" font-weight="700" fill="#222">G2-03 Institución</text><rect x="880" y="180" width="190" height="90" rx="8" fill="#fafafa" stroke="#bdbdbd" stroke-width="1.5"/><text x="896" y="208" font-family="Arial" font-size="16" font-weight="700" fill="#222">G2-04 Docente</text><rect x="360" y="460" width="190" height="90" rx="8" fill="#fafafa" stroke="#bdbdbd" stroke-width="1.5"/><text x="376" y="488" font-family="Arial" font-size="16" font-weight="700" fill="#222">G2-05 Confirmación</text><rect x="620" y="460" width="190" height="90" rx="8" fill="#fafafa" stroke="#bdbdbd" stroke-width="1.5"/><text x="636" y="488" font-family="Arial" font-size="16" font-weight="700" fill="#222">G2-06 Asignado</text></svg>