<svg xmlns="http://www.w3.org/2000/svg" width="1440" height="900" viewBox="0 0 1440 900">
<rect width="100%" height="100%" fill="#ffffff"/>
<rect x="0" y="0" width="240" height="900" fill="#f2f2f2"/>
<text x="32" y="48" font-family="Arial" font-size="28" font-weight="700" fill="#111">SIGPRA</text>
<text x="280" y="54" font-family="Arial" font-size="28" font-weight="700" fill="#111">Programar visita</text>
<text x="32" y="86" font-family="Arial" font-size="14" fill="#666">Docente Asesor</text><rect x="20" y="88" width="200" height="38" rx="6" fill="#e6e6e6"/><text x="34" y="113" font-family="Arial" font-size="15" fill="#222">Inicio</text><rect x="20" y="142" width="200" height="38" rx="6" fill="#e6e6e6"/><text x="34" y="167" font-family="Arial" font-size="15" fill="#222">Mis estudiantes</text><rect x="20" y="196" width="200" height="38" rx="6" fill="#e6e6e6"/><text x="34" y="221" font-family="Arial" font-size="15" fill="#222">Seguimiento</text><rect x="20" y="250" width="200" height="38" rx="6" fill="#e6e6e6"/><text x="34" y="275" font-family="Arial" font-size="15" fill="#222">Evaluaciones</text><text x="320" y="140" font-family="Arial" font-size="14" font-weight="700" fill="#222">Estudiante</text><rect x="320" y="150" width="360" height="46" rx="8" fill="#fff" stroke="#bdbdbd" stroke-width="1.5"/><text x="336" y="178" font-family="Arial" font-size="14" font-weight="400" fill="#222">Laura Gómez</text><text x="710" y="140" font-family="Arial" font-size="14" font-weight="700" fill="#222">Institución</text><rect x="710" y="150" width="360" height="46" rx="8" fill="#fff" stroke="#bdbdbd" stroke-width="1.5"/><text x="726" y="178" font-family="Arial" font-size="14" font-weight="400" fill="#222">Colegio ABC</text><rect x="320" y="260" width="750" height="70" rx="8" fill="#fafafa" stroke="#bdbdbd" stroke-width="1.5"/><text x="336" y="288" font-family="Arial" font-size="16" font-weight="400" fill="#222">Tipo de visita:   ○ Presencial     ○ Remota</text><text x="320" y="360" font-family="Arial" font-size="14" font-weight="700" fill="#222">Fecha</text><rect x="320" y="370" width="260" height="46" rx="8" fill="#fff" stroke="#bdbdbd" stroke-width="1.5"/><text x="336" y="398" font-family="Arial" font-size="14" font-weight="400" fill="#222">dd/mm/aaaa</text><text x="620" y="360" font-family="Arial" font-size="14" font-weight="700" fill="#222">Hora</text><rect x="620" y="370" width="220" height="46" rx="8" fill="#fff" stroke="#bdbdbd" stroke-width="1.5"/><text x="636" y="398" font-family="Arial" font-size="14" font-weight="400" fill="#222">hh:mm</text><text x="320" y="470" font-family="Arial" font-size="14" font-weight="700" fill="#222">Observaciones</text><rect x="320" y="485" width="750" height="140" rx="8" fill="#fafafa" stroke="#bdbdbd" stroke-width="1.5"/><text x="336" y="513" font-family="Arial" font-size="15" font-weight="400" fill="#222">...</text><rect x="880" y="760" width="250" height="42" rx="7" fill="#d9d9d9" stroke="#999"/><text x="1005.0" y="787" text-anchor="middle" font-family="Arial" font-size="15" font-weight="700" fill="#222">Programar visita</text></svg>