<svg xmlns="http://www.w3.org/2000/svg" width="1440" height="900" viewBox="0 0 1440 900">
<rect width="100%" height="100%" fill="#ffffff"/>
<rect x="0" y="0" width="240" height="900" fill="#f2f2f2"/>
<text x="32" y="48" font-family="Arial" font-size="28" font-weight="700" fill="#111">SIGPRA</text>
<text x="280" y="54" font-family="Arial" font-size="28" font-weight="700" fill="#111">Inicio docente</text>
<text x="32" y="86" font-family="Arial" font-size="14" fill="#666">Docente Asesor</text><rect x="20" y="88" width="200" height="38" rx="6" fill="#e6e6e6"/><text x="34" y="113" font-family="Arial" font-size="15" fill="#222">Inicio</text><rect x="20" y="142" width="200" height="38" rx="6" fill="#e6e6e6"/><text x="34" y="167" font-family="Arial" font-size="15" fill="#222">Mis estudiantes</text><rect x="20" y="196" width="200" height="38" rx="6" fill="#e6e6e6"/><text x="34" y="221" font-family="Arial" font-size="15" fill="#222">Seguimiento</text><rect x="20" y="250" width="200" height="38" rx="6" fill="#e6e6e6"/><text x="34" y="275" font-family="Arial" font-size="15" fill="#222">Evaluaciones</text><rect x="300" y="140" width="260" height="120" rx="8" fill="#fafafa" stroke="#bdbdbd" stroke-width="1.5"/><text x="316" y="168" font-family="Arial" font-size="19" font-weight="700" fill="#222">Estudiantes asignados 12</text><rect x="600" y="140" width="260" height="120" rx="8" fill="#fafafa" stroke="#bdbdbd" stroke-width="1.5"/><text x="616" y="168" font-family="Arial" font-size="19" font-weight="700" fill="#222">Evidencias pendientes 8</text><rect x="900" y="140" width="260" height="120" rx="8" fill="#fafafa" stroke="#bdbdbd" stroke-width="1.5"/><text x="916" y="168" font-family="Arial" font-size="19" font-weight="700" fill="#222">Visitas pendientes 3</text><rect x="300" y="320" width="860" height="260" rx="8" fill="#fafafa" stroke="#bdbdbd" stroke-width="1.5"/><text x="316" y="348" font-family="Arial" font-size="17" font-weight="400" fill="#222">Estudiantes que requieren atención  Juan Pérez · 60/120 h · 4 evidencias pendientes Ana Ríos ·</text><text x="316" y="372" font-family="Arial" font-size="17" font-weight="400" fill="#222">66/120 h · 2 evidencias pendientes</text></svg>