<svg xmlns="http://www.w3.org/2000/svg" width="1440" height="900" viewBox="0 0 1440 900">
<rect width="100%" height="100%" fill="#ffffff"/>
<rect x="0" y="0" width="240" height="900" fill="#f2f2f2"/>
<text x="32" y="48" font-family="Arial" font-size="28" font-weight="700" fill="#111">SIGPRA</text>
<text x="280" y="54" font-family="Arial" font-size="28" font-weight="700" fill="#111">Revisar evidencia</text>
<text x="32" y="86" font-family="Arial" font-size="14" fill="#666">Docente Asesor</text><rect x="20" y="88" width="200" height="38" rx="6" fill="#e6e6e6"/><text x="34" y="113" font-family="Arial" font-size="15" fill="#222">Inicio</text><rect x="20" y="142" width="200" height="38" rx="6" fill="#e6e6e6"/><text x="34" y="167" font-family="Arial" font-size="15" fill="#222">Mis estudiantes</text><rect x="20" y="196" width="200" height="38" rx="6" fill="#e6e6e6"/><text x="34" y="221" font-family="Arial" font-size="15" fill="#222">Seguimiento</text><rect x="20" y="250" width="200" height="38" rx="6" fill="#e6e6e6"/><text x="34" y="275" font-family="Arial" font-size="15" fill="#222">Evaluaciones</text><rect x="300" y="140" width="440" height="500" rx="8" fill="#fafafa" stroke="#bdbdbd" stroke-width="1.5"/><text x="316" y="168" font-family="Arial" font-size="17" font-weight="400" fill="#222">EVIDENCIA  Actividad: Planeación de clase Fecha:</text><text x="316" y="192" font-family="Arial" font-size="17" font-weight="400" fill="#222">12/09/2026 Horas: 4  Descripción: ...  Archivos:</text><text x="316" y="216" font-family="Arial" font-size="17" font-weight="400" fill="#222">fotografia.jpg diario.pdf</text><rect x="770" y="140" width="450" height="500" rx="8" fill="#fafafa" stroke="#bdbdbd" stroke-width="1.5"/><text x="786" y="168" font-family="Arial" font-size="17" font-weight="400" fill="#222">EVALUACIÓN  ○ Excelente ○ Bueno ○ Aceptable ○</text><text x="786" y="192" font-family="Arial" font-size="17" font-weight="400" fill="#222">Requiere mejora ○ Rechazada  Observaciones</text><text x="786" y="216" font-family="Arial" font-size="17" font-weight="400" fill="#222">[_______________________]  [Aprobar]</text><text x="786" y="240" font-family="Arial" font-size="17" font-weight="400" fill="#222">[Clarificación]  [Rechazar]</text></svg>