<svg xmlns="http://www.w3.org/2000/svg" width="1440" height="900" viewBox="0 0 1440 900">
<rect width="100%" height="100%" fill="#ffffff"/>
<rect x="0" y="0" width="240" height="900" fill="#f2f2f2"/>
<text x="32" y="48" font-family="Arial" font-size="28" font-weight="700" fill="#111">SIGPRA</text>
<text x="280" y="54" font-family="Arial" font-size="28" font-weight="700" fill="#111">Informe generado</text>
<text x="32" y="86" font-family="Arial" font-size="14" fill="#666">Gestor de Prácticas</text><rect x="20" y="88" width="200" height="38" rx="6" fill="#e6e6e6"/><text x="34" y="113" font-family="Arial" font-size="15" fill="#222">Inicio</text><rect x="20" y="142" width="200" height="38" rx="6" fill="#e6e6e6"/><text x="34" y="167" font-family="Arial" font-size="15" fill="#222">Planificación</text><rect x="20" y="196" width="200" height="38" rx="6" fill="#e6e6e6"/><text x="34" y="221" font-family="Arial" font-size="15" fill="#222">Asignaciones</text><rect x="20" y="250" width="200" height="38" rx="6" fill="#e6e6e6"/><text x="34" y="275" font-family="Arial" font-size="15" fill="#222">Instituciones y convenios</text><rect x="20" y="304" width="200" height="38" rx="6" fill="#e6e6e6"/><text x="34" y="329" font-family="Arial" font-size="15" fill="#222">Informes e indicadores</text><rect x="320" y="120" width="250" height="110" rx="8" fill="#fafafa" stroke="#bdbdbd" stroke-width="1.5"/><text x="336" y="148" font-family="Arial" font-size="20" font-weight="700" fill="#222">Estudiantes 124</text><rect x="610" y="120" width="250" height="110" rx="8" fill="#fafafa" stroke="#bdbdbd" stroke-width="1.5"/><text x="626" y="148" font-family="Arial" font-size="20" font-weight="700" fill="#222">Cumplimiento 86 %</text><rect x="900" y="120" width="250" height="110" rx="8" fill="#fafafa" stroke="#bdbdbd" stroke-width="1.5"/><text x="916" y="148" font-family="Arial" font-size="20" font-weight="700" fill="#222">En riesgo 12</text><rect x="320" y="270" width="830" height="220" rx="8" fill="#fafafa" stroke="#bdbdbd" stroke-width="1.5"/><text x="336" y="298" font-family="Arial" font-size="20" font-weight="700" fill="#222">Gráfico de barras / tendencias</text><rect x="320" y="525" width="830" height="180" rx="8" fill="#fafafa" stroke="#bdbdbd" stroke-width="1.5"/><text x="336" y="553" font-family="Arial" font-size="16" font-weight="400" fill="#222">Estudiante      Horas      % cumplimiento      Estado  Laura Gómez     112/120    93 %</text><text x="336" y="576" font-family="Arial" font-size="16" font-weight="400" fill="#222">Correcto Juan Pérez      70/120     58 %                 Riesgo</text><rect x="980" y="120" width="170" height="42" rx="7" fill="#d9d9d9" stroke="#999"/><text x="1065.0" y="147" text-anchor="middle" font-family="Arial" font-size="15" font-weight="700" fill="#222">Exportar</text></svg>